<mxfile host="app.diagrams.net" modified="2023-06-21T03:03:51.581Z" agent="Mozilla/5.0 (Windows NT 10.0; Win64; x64) AppleWebKit/537.36 (KHTML, like Gecko) Chrome/114.0.0.0 Safari/537.36" etag="b3wSXcdlJz7XzQbX6PH4" version="21.5.0" type="github">
  <diagram name="Page-1" id="13e1069c-82ec-6db2-03f1-153e76fe0fe0">
    <mxGraphModel dx="1434" dy="756" grid="1" gridSize="10" guides="1" tooltips="1" connect="1" arrows="1" fold="1" page="1" pageScale="1" pageWidth="1100" pageHeight="850" background="none" math="0" shadow="0">
      <root>
        <mxCell id="0" />
        <mxCell id="1" parent="0" />
        <mxCell id="7baba1c4bc27f4b0-2" value="客户端&lt;br&gt;IM" style="shape=umlLifeline;perimeter=lifelinePerimeter;whiteSpace=wrap;html=1;container=1;collapsible=0;recursiveResize=0;outlineConnect=0;rounded=1;shadow=0;comic=0;labelBackgroundColor=none;strokeWidth=1;fontFamily=Verdana;fontSize=12;align=center;" parent="1" vertex="1">
          <mxGeometry x="240" y="80" width="100" height="580" as="geometry" />
        </mxCell>
        <mxCell id="7baba1c4bc27f4b0-10" value="" style="html=1;points=[];perimeter=orthogonalPerimeter;rounded=0;shadow=0;comic=0;labelBackgroundColor=none;strokeWidth=1;fontFamily=Verdana;fontSize=12;align=center;" parent="7baba1c4bc27f4b0-2" vertex="1">
          <mxGeometry x="45" y="140" width="10" height="320" as="geometry" />
        </mxCell>
        <mxCell id="Bk85Vcgd6z30ZEJb06JP-5" value="" style="endArrow=classic;html=1;rounded=0;edgeStyle=elbowEdgeStyle;" edge="1" parent="7baba1c4bc27f4b0-2">
          <mxGeometry relative="1" as="geometry">
            <mxPoint x="45" y="140" as="sourcePoint" />
            <mxPoint x="50.5" y="190" as="targetPoint" />
            <Array as="points">
              <mxPoint x="110.5" y="190" />
            </Array>
          </mxGeometry>
        </mxCell>
        <mxCell id="Bk85Vcgd6z30ZEJb06JP-6" value="存储到&lt;br&gt;消息表" style="edgeLabel;resizable=0;html=1;align=center;verticalAlign=middle;" connectable="0" vertex="1" parent="Bk85Vcgd6z30ZEJb06JP-5">
          <mxGeometry relative="1" as="geometry" />
        </mxCell>
        <mxCell id="Bk85Vcgd6z30ZEJb06JP-20" value="" style="endArrow=classic;html=1;rounded=0;edgeStyle=elbowEdgeStyle;entryX=1;entryY=0.965;entryDx=0;entryDy=0;entryPerimeter=0;" edge="1" parent="7baba1c4bc27f4b0-2">
          <mxGeometry relative="1" as="geometry">
            <mxPoint x="55" y="310" as="sourcePoint" />
            <mxPoint x="55" y="361.95000000000005" as="targetPoint" />
            <Array as="points">
              <mxPoint x="120.5" y="360" />
            </Array>
          </mxGeometry>
        </mxCell>
        <mxCell id="Bk85Vcgd6z30ZEJb06JP-21" value="更新消息状态" style="edgeLabel;resizable=0;html=1;align=center;verticalAlign=middle;" connectable="0" vertex="1" parent="Bk85Vcgd6z30ZEJb06JP-20">
          <mxGeometry relative="1" as="geometry" />
        </mxCell>
        <mxCell id="Bk85Vcgd6z30ZEJb06JP-22" value="" style="endArrow=classic;html=1;rounded=0;" edge="1" parent="7baba1c4bc27f4b0-2">
          <mxGeometry relative="1" as="geometry">
            <mxPoint x="40" y="380" as="sourcePoint" />
            <mxPoint x="-85" y="380" as="targetPoint" />
          </mxGeometry>
        </mxCell>
        <mxCell id="Bk85Vcgd6z30ZEJb06JP-23" value="通知刷新" style="edgeLabel;resizable=0;html=1;align=center;verticalAlign=middle;" connectable="0" vertex="1" parent="Bk85Vcgd6z30ZEJb06JP-22">
          <mxGeometry relative="1" as="geometry" />
        </mxCell>
        <mxCell id="Bk85Vcgd6z30ZEJb06JP-26" value="" style="endArrow=classic;html=1;rounded=0;exitX=0.773;exitY=0.13;exitDx=0;exitDy=0;exitPerimeter=0;" edge="1" parent="7baba1c4bc27f4b0-2">
          <mxGeometry relative="1" as="geometry">
            <mxPoint x="-87" y="410" as="sourcePoint" />
            <mxPoint x="45" y="410" as="targetPoint" />
          </mxGeometry>
        </mxCell>
        <mxCell id="Bk85Vcgd6z30ZEJb06JP-27" value="请求获取消息" style="edgeLabel;resizable=0;html=1;align=center;verticalAlign=middle;" connectable="0" vertex="1" parent="Bk85Vcgd6z30ZEJb06JP-26">
          <mxGeometry relative="1" as="geometry" />
        </mxCell>
        <mxCell id="Bk85Vcgd6z30ZEJb06JP-28" value="" style="endArrow=classic;html=1;rounded=0;exitX=0.035;exitY=0.687;exitDx=0;exitDy=0;exitPerimeter=0;" edge="1" parent="7baba1c4bc27f4b0-2">
          <mxGeometry relative="1" as="geometry">
            <mxPoint x="45" y="460" as="sourcePoint" />
            <mxPoint x="-85" y="460" as="targetPoint" />
          </mxGeometry>
        </mxCell>
        <mxCell id="Bk85Vcgd6z30ZEJb06JP-29" value="消息" style="edgeLabel;resizable=0;html=1;align=center;verticalAlign=middle;" connectable="0" vertex="1" parent="Bk85Vcgd6z30ZEJb06JP-28">
          <mxGeometry relative="1" as="geometry" />
        </mxCell>
        <mxCell id="7baba1c4bc27f4b0-3" value="Service" style="shape=umlLifeline;perimeter=lifelinePerimeter;whiteSpace=wrap;html=1;container=1;collapsible=0;recursiveResize=0;outlineConnect=0;rounded=1;shadow=0;comic=0;labelBackgroundColor=none;strokeWidth=1;fontFamily=Verdana;fontSize=12;align=center;" parent="1" vertex="1">
          <mxGeometry x="400" y="80" width="100" height="580" as="geometry" />
        </mxCell>
        <mxCell id="7baba1c4bc27f4b0-13" value="" style="html=1;points=[];perimeter=orthogonalPerimeter;rounded=0;shadow=0;comic=0;labelBackgroundColor=none;strokeWidth=1;fontFamily=Verdana;fontSize=12;align=center;" parent="7baba1c4bc27f4b0-3" vertex="1">
          <mxGeometry x="45" y="220" width="10" height="60" as="geometry" />
        </mxCell>
        <mxCell id="Bk85Vcgd6z30ZEJb06JP-15" value="" style="endArrow=classic;html=1;rounded=0;exitX=0.773;exitY=0.13;exitDx=0;exitDy=0;exitPerimeter=0;" edge="1" parent="7baba1c4bc27f4b0-3">
          <mxGeometry relative="1" as="geometry">
            <mxPoint x="-105" y="220" as="sourcePoint" />
            <mxPoint x="49.5" y="220" as="targetPoint" />
          </mxGeometry>
        </mxCell>
        <mxCell id="Bk85Vcgd6z30ZEJb06JP-16" value="发送消息" style="edgeLabel;resizable=0;html=1;align=center;verticalAlign=middle;" connectable="0" vertex="1" parent="Bk85Vcgd6z30ZEJb06JP-15">
          <mxGeometry relative="1" as="geometry" />
        </mxCell>
        <mxCell id="7baba1c4bc27f4b0-8" value="APP&lt;span style=&quot;white-space: pre;&quot;&gt;&#x9;&lt;/span&gt;" style="shape=umlLifeline;perimeter=lifelinePerimeter;whiteSpace=wrap;html=1;container=1;collapsible=0;recursiveResize=0;outlineConnect=0;rounded=1;shadow=0;comic=0;labelBackgroundColor=none;strokeWidth=1;fontFamily=Verdana;fontSize=12;align=center;" parent="1" vertex="1">
          <mxGeometry x="100" y="80" width="100" height="580" as="geometry" />
        </mxCell>
        <mxCell id="7baba1c4bc27f4b0-9" value="" style="html=1;points=[];perimeter=orthogonalPerimeter;rounded=0;shadow=0;comic=0;labelBackgroundColor=none;strokeWidth=1;fontFamily=Verdana;fontSize=12;align=center;" parent="7baba1c4bc27f4b0-8" vertex="1">
          <mxGeometry x="44.5" y="80" width="11" height="460" as="geometry" />
        </mxCell>
        <mxCell id="7baba1c4bc27f4b0-40" value="Note" style="shape=note;whiteSpace=wrap;html=1;size=14;verticalAlign=top;align=left;spacingTop=-6;rounded=0;shadow=0;comic=0;labelBackgroundColor=none;strokeWidth=1;fontFamily=Verdana;fontSize=12" parent="1" vertex="1">
          <mxGeometry x="100" y="30" width="100" height="35" as="geometry" />
        </mxCell>
        <mxCell id="7baba1c4bc27f4b0-41" value="Note" style="shape=note;whiteSpace=wrap;html=1;size=14;verticalAlign=top;align=left;spacingTop=-6;rounded=0;shadow=0;comic=0;labelBackgroundColor=none;strokeWidth=1;fontFamily=Verdana;fontSize=12" parent="1" vertex="1">
          <mxGeometry x="240" y="30" width="100" height="35" as="geometry" />
        </mxCell>
        <mxCell id="7baba1c4bc27f4b0-42" value="Note" style="shape=note;whiteSpace=wrap;html=1;size=14;verticalAlign=top;align=left;spacingTop=-6;rounded=0;shadow=0;comic=0;labelBackgroundColor=none;strokeWidth=1;fontFamily=Verdana;fontSize=12" parent="1" vertex="1">
          <mxGeometry x="400" y="30" width="100" height="35" as="geometry" />
        </mxCell>
        <mxCell id="UCgfPlwns56HRKalfdYS-10" value="" style="endArrow=classic;html=1;rounded=0;edgeStyle=elbowEdgeStyle;" parent="1" target="7baba1c4bc27f4b0-8" edge="1">
          <mxGeometry relative="1" as="geometry">
            <mxPoint x="144.5" y="160" as="sourcePoint" />
            <mxPoint x="210" y="250" as="targetPoint" />
            <Array as="points">
              <mxPoint x="210" y="210" />
            </Array>
          </mxGeometry>
        </mxCell>
        <mxCell id="UCgfPlwns56HRKalfdYS-11" value="选择并&lt;br&gt;复制图片" style="edgeLabel;resizable=0;html=1;align=center;verticalAlign=middle;" parent="UCgfPlwns56HRKalfdYS-10" connectable="0" vertex="1">
          <mxGeometry relative="1" as="geometry" />
        </mxCell>
        <mxCell id="Bk85Vcgd6z30ZEJb06JP-1" value="" style="endArrow=classic;html=1;rounded=0;exitX=0.773;exitY=0.13;exitDx=0;exitDy=0;exitPerimeter=0;" edge="1" parent="1" source="7baba1c4bc27f4b0-9" target="7baba1c4bc27f4b0-2">
          <mxGeometry relative="1" as="geometry">
            <mxPoint x="160" y="220" as="sourcePoint" />
            <mxPoint x="240" y="220" as="targetPoint" />
          </mxGeometry>
        </mxCell>
        <mxCell id="Bk85Vcgd6z30ZEJb06JP-2" value="发送图片" style="edgeLabel;resizable=0;html=1;align=center;verticalAlign=middle;" connectable="0" vertex="1" parent="Bk85Vcgd6z30ZEJb06JP-1">
          <mxGeometry relative="1" as="geometry" />
        </mxCell>
        <mxCell id="Bk85Vcgd6z30ZEJb06JP-12" value="content" style="shape=ext;margin=3;double=1;whiteSpace=wrap;html=1;align=center;" vertex="1" parent="1">
          <mxGeometry x="830" y="90" width="270" height="180" as="geometry" />
        </mxCell>
        <mxCell id="Bk85Vcgd6z30ZEJb06JP-13" value="thumbnail" style="ellipse;whiteSpace=wrap;html=1;align=center;" vertex="1" parent="1">
          <mxGeometry x="850" y="110" width="100" height="40" as="geometry" />
        </mxCell>
        <mxCell id="Bk85Vcgd6z30ZEJb06JP-14" value="url" style="ellipse;whiteSpace=wrap;html=1;align=center;" vertex="1" parent="1">
          <mxGeometry x="980" y="110" width="100" height="40" as="geometry" />
        </mxCell>
        <mxCell id="Bk85Vcgd6z30ZEJb06JP-17" value="loop" style="shape=umlFrame;whiteSpace=wrap;html=1;pointerEvents=0;" vertex="1" parent="1">
          <mxGeometry x="220" y="280" width="300" height="100" as="geometry" />
        </mxCell>
        <mxCell id="Bk85Vcgd6z30ZEJb06JP-18" value="" style="endArrow=classic;html=1;rounded=0;" edge="1" parent="1">
          <mxGeometry relative="1" as="geometry">
            <mxPoint x="450" y="360" as="sourcePoint" />
            <mxPoint x="290" y="360" as="targetPoint" />
          </mxGeometry>
        </mxCell>
        <mxCell id="Bk85Vcgd6z30ZEJb06JP-19" value="响应" style="edgeLabel;resizable=0;html=1;align=center;verticalAlign=middle;" connectable="0" vertex="1" parent="Bk85Vcgd6z30ZEJb06JP-18">
          <mxGeometry relative="1" as="geometry" />
        </mxCell>
      </root>
    </mxGraphModel>
  </diagram>
</mxfile>
